# xmcd
#
# Track frame offsets:
#	150
#	13057
#	25355
#	39124
#	50749
#	63738
#	74475
#	86661
#	99936
#	112352
#	124041
#	138297
#	153213
#	173704
#	185481
#	202618
#	216996
#	229021
#	239324
#	255439
#	282384
#
# Disc length: 4440 seconds
#
# Revision: 0
# Processed by: cddbd v1.5.1PL0 Copyright (c) Steve Scherf et al.
# Submitted via: audiograbber 1.82.02
#
DISCID=29115615
DTITLE=Various Artist - Country Legends
DYEAR=2004
DGENRE=Country
TTITLE0=Kenny Rogers - Ruby Don't Take Your Love To Town
TTITLE1=Glen Campbell - By The Time I Get To Phoenix
TTITLE2=Willy Nelson  - Funny How Time Slips Away
TTITLE3=Crystal Gayle - Don't It Make My Brown Eyes Blue
TTITLE4=Bobie Gentry - I'll Never Fall In Love Again
TTITLE5=Slim Whitman - Rose Marie
TTITLE6=George Jones - Beggar To A King
TTITLE7=Tanya Tucker - San Antonio Stroll
TTITLE8=Billie Jo Spears - What I've Got In Mind
TTITLE9=Merle Haggard - Workin' Man Blues
TTITLE10=Don Williams - Desperately
TTITLE11=Deana Carter - Brand New Key
TTITLE12=Suzy Bogguss - Take It To The Limit
TTITLE13=Lacy J Dalton - Love Hurts
TTITLE14=Nitty Critty - Dirt Bandall I Have To Do Is Dream
TTITLE15=Eddy Rabbitt - I Love A Rainy Night
TTITLE16=Wanda Jackson - Stand By Your Man
TTITLE17=Tennessee Ernie Ford - King Of The Road
TTITLE18=Joe South - Games People Play
TTITLE19=Juice Newton - It's A Heartache
TTITLE20=copy - Gegevens Track
EXTD=
EXTT0=
EXTT1=
EXTT2=
EXTT3=
EXTT4=
EXTT5=
EXTT6=
EXTT7=
EXTT8=
EXTT9=
EXTT10=
EXTT11=
EXTT12=
EXTT13=
EXTT14=
EXTT15=
EXTT16=
EXTT17=
EXTT18=
EXTT19=
EXTT20=
PLAYORDER=
